<svg width="20" height="22" viewBox="0 0 20 22" fill="none" xmlns="http://www.w3.org/2000/svg">
<path d="M1 1V0.25C0.585786 0.25 0.25 0.585786 0.25 1L1 1ZM19 1H19.75C19.75 0.585786 19.4142 0.25 19 0.25V1ZM19 21L18.4661 21.5267C18.6798 21.7433 19.0032 21.8094 19.2847 21.6939C19.5662 21.5784 19.75 21.3043 19.75 21H19ZM10 11.8772L10.5339 11.3505C10.393 11.2076 10.2007 11.1272 10 11.1272C9.79933 11.1272 9.60702 11.2076 9.46609 11.3505L10 11.8772ZM1 21H0.25C0.25 21.3043 0.433833 21.5784 0.715337 21.6939C0.99684 21.8094 1.32022 21.7433 1.53391 21.5267L1 21ZM1 1.75H19V0.25H1V1.75ZM18.25 1V21H19.75V1H18.25ZM19.5339 20.4733L10.5339 11.3505L9.46609 12.4039L18.4661 21.5267L19.5339 20.4733ZM9.46609 11.3505L0.466088 20.4733L1.53391 21.5267L10.5339 12.4039L9.46609 11.3505ZM1.75 21V1H0.25V21H1.75Z" fill="#333333"/>
</svg>
