<svg width="36" height="36" viewBox="0 0 36 36" fill="none" xmlns="http://www.w3.org/2000/svg">
<path d="M3.5145 35.0024C2.5862 35.0024 1.69593 34.6336 1.03952 33.9772C0.383116 33.3208 0.0143497 32.4306 0.0143497 31.5023L0 3.51156C-2.969e-07 2.58375 0.368381 1.6939 1.02418 1.03757C1.67998 0.381249 2.56954 0.0121558 3.49735 0.0114136H3.50015C4.42808 0.0114134 5.31804 0.379891 5.97439 1.03584C6.63073 1.69179 6.99974 2.58153 7.0003 3.50946L7.01535 31.5023C7.01535 32.4301 6.64697 33.3199 5.99117 33.9762C5.33537 34.6326 4.44581 35.0017 3.518 35.0024H3.5145Z" fill="#333333"/>
<path d="M31.5015 34.9927C30.5736 34.9927 29.6836 34.6242 29.0273 33.9683C28.3709 33.3123 28.0019 32.4226 28.0014 31.4947L27.9863 3.50186C27.9863 2.57405 28.3547 1.68419 29.0105 1.02787C29.6663 0.371545 30.5559 0.00245123 31.4837 0.00170898H31.4858C32.4141 0.00170898 33.3044 0.370473 33.9608 1.02688C34.6172 1.68328 34.9859 2.57356 34.9859 3.50186L35.0013 31.4943C35.0013 32.4221 34.633 33.312 33.9772 33.9683C33.3214 34.6246 32.4318 34.9937 31.504 34.9945L31.5015 34.9927Z" fill="#333333"/>
<path d="M17.5009 26.549C16.5726 26.549 15.6823 26.1802 15.0259 25.5238C14.3695 24.8674 14.0007 23.9771 14.0007 23.0488L13.9902 3.5012C13.99 2.57333 14.3581 1.68331 15.0138 1.02678C15.6695 0.370246 16.559 0.000927831 17.4869 0H17.489C18.4169 -1.67028e-07 19.3069 0.368477 19.9632 1.02443C20.6196 1.68038 20.9886 2.57012 20.9891 3.49805L20.9996 23.0457C21 23.5055 20.9099 23.9609 20.7342 24.3858C20.5586 24.8107 20.301 25.1969 19.9761 25.5222C19.6512 25.8475 19.2653 26.1057 18.8406 26.2818C18.4159 26.458 17.9607 26.5488 17.5009 26.549Z" fill="#333333"/>
</svg>
