<svg width="21" height="21" viewBox="0 0 21 21" fill="none" xmlns="http://www.w3.org/2000/svg">
<path d="M19.8041 9.87864C19.798 12.0687 19.0643 14.1946 17.7184 15.9222C16.3725 17.6498 14.4907 18.8813 12.3687 19.4229C10.2467 19.9646 8.00493 19.7858 5.99565 18.9146C3.98637 18.0434 2.32355 16.5292 1.26855 14.61C2.72501 15.4143 4.36216 15.8348 6.02592 15.8319C8.64591 15.8319 11.1586 14.7911 13.0112 12.9385C14.8638 11.0858 15.9046 8.57316 15.9046 5.95317C15.9075 4.2894 15.487 2.65226 14.6828 1.1958C16.2373 2.05 17.5332 3.307 18.4343 4.83482C19.3354 6.36263 19.8086 8.10488 19.8041 9.87864Z" stroke="#333333" stroke-width="1.5" stroke-linecap="round" stroke-linejoin="round"/>
</svg>
